<?xml version="1.0" encoding="UTF-8" standalone="no"?>
<!DOCTYPE svg PUBLIC "-//W3C//DTD SVG 1.1//EN" "http://www.w3.org/Graphics/SVG/1.1/DTD/svg11.dtd">
<svg width="100%" height="100%" viewBox="0 0 1667 284" version="1.1" xmlns="http://www.w3.org/2000/svg" xmlns:xlink="http://www.w3.org/1999/xlink" xml:space="preserve" xmlns:serif="http://www.serif.com/" style="fill-rule:evenodd;clip-rule:evenodd;stroke-linejoin:round;stroke-miterlimit:2;">
    <g id="Artboard1" transform="matrix(1,0,0,0.680976,0,0)">
        <rect x="0" y="0" width="1666.67" height="417" style="fill:none;"/>
        <clipPath id="_clip1">
            <rect x="0" y="0" width="1666.67" height="417"/>
        </clipPath>
        <g clip-path="url(#_clip1)">
            <g id="Logo-Codeando-México" serif:id="Logo Codeando México" transform="matrix(1,0,0,1.46848,0,-96.5354)">
                <rect x="0" y="0" width="1666.67" height="416.667" style="fill:none;"/>
            </g>
            <g id="Logo" transform="matrix(1.3242,0,0,1.94456,-270.16,-196.616)">
                <g>
                    <g id="Codeando">
                        <path d="M478.081,168.635C488.769,168.635 505.056,171.179 505.056,171.179L505.565,160.491C505.565,160.491 490.296,156.929 476.554,156.929C445.508,156.929 437.873,175.76 437.873,211.896C437.873,246.505 444.999,266.355 476.554,266.355C488.769,266.355 505.565,262.792 505.565,262.792L505.056,252.104C505.056,252.104 487.242,254.648 478.081,254.648C453.651,254.648 450.088,240.398 450.088,211.896C450.597,182.885 454.669,168.635 478.081,168.635Z" style="fill:rgb(29,29,27);fill-rule:nonzero;"/>
                        <path d="M546.281,186.957C521.851,186.957 513.708,199.172 513.708,225.638C513.708,253.631 520.833,266.355 546.281,266.355C571.729,266.355 578.855,252.613 578.855,226.147C578.855,199.681 569.184,186.957 546.281,186.957ZM546.281,256.175C528.468,256.175 525.414,247.014 525.414,225.638C525.414,204.771 529.995,197.645 546.281,197.645C561.041,197.645 567.148,205.789 567.148,226.147C567.148,245.996 564.604,256.175 546.281,256.175Z" style="fill:rgb(29,29,27);fill-rule:nonzero;"/>
                        <path d="M637.894,188.993C635.858,188.484 625.679,186.957 619.062,186.957C595.65,186.957 586.998,200.19 586.998,226.656C586.998,259.738 599.213,265.846 613.973,265.846C625.17,265.846 636.876,259.229 636.876,259.229L636.876,264.319L648.073,264.319L648.073,157.438L637.894,157.438L637.894,188.993ZM637.894,250.068C637.894,250.068 626.697,255.666 616.517,255.666C607.356,255.666 599.213,251.595 599.213,227.165C599.213,206.806 604.302,197.136 620.08,197.136C626.188,197.136 635.858,198.663 637.894,199.172L637.894,250.068Z" style="fill:rgb(29,29,27);fill-rule:nonzero;"/>
                        <path d="M688.789,186.957C669.449,186.957 656.725,198.154 656.725,226.656C656.725,252.613 663.85,265.846 687.262,265.846C699.477,265.846 716.782,263.301 716.782,263.301L716.273,254.14C716.273,254.14 699.986,255.666 688.28,255.666C673.012,255.666 668.431,247.014 667.922,231.236L718.309,231.236L718.818,222.584C719.327,197.645 708.639,186.957 688.789,186.957ZM667.922,222.075C667.922,204.262 675.048,197.136 688.28,197.136C701.513,197.136 707.112,203.753 707.112,222.075L667.922,222.075Z" style="fill:rgb(29,29,27);fill-rule:nonzero;"/>
                        <path d="M785.491,249.559L785.491,212.405C785.491,195.1 777.348,187.466 761.061,187.466C749.355,187.466 731.033,190.52 731.033,190.52L731.542,200.19C731.542,200.19 749.355,198.154 760.552,198.154C769.205,198.154 773.785,202.735 773.785,211.896L773.785,218.004L749.355,220.039C733.578,221.566 726.452,228.183 726.452,242.942C726.452,258.211 733.578,266.355 747.319,266.355C761.57,266.355 775.312,260.247 775.312,260.247C779.384,264.319 783.964,266.355 793.126,266.355L793.635,256.684C789.563,255.666 785.491,254.14 785.491,249.559ZM774.294,252.104C774.294,252.104 761.061,256.684 749.355,256.684C742.23,256.684 738.158,252.104 738.158,242.942C738.158,235.308 741.721,230.727 751.391,229.201L774.294,227.165L774.294,252.104Z" style="fill:rgb(29,29,27);fill-rule:nonzero;"/>
                        <path d="M833.842,186.957C822.645,186.957 810.43,193.574 810.43,193.574L810.43,188.484L799.233,188.484L799.233,264.828L810.43,264.828L810.43,203.244C810.43,203.244 822.136,197.645 831.806,197.645C845.548,197.645 848.093,204.771 848.093,225.638L848.093,265.337L859.29,265.337L859.29,225.638C859.29,197.136 854.71,186.957 833.842,186.957Z" style="fill:rgb(29,29,27);fill-rule:nonzero;"/>
                        <path d="M923.419,188.993C921.383,188.484 911.204,186.957 904.587,186.957C881.175,186.957 872.523,200.19 872.523,226.656C872.523,259.738 884.738,265.846 900.007,265.846C911.204,265.846 922.91,259.229 922.91,259.229L922.91,264.319L934.107,264.319L934.107,157.438L922.91,157.438L922.91,188.993L923.419,188.993ZM923.419,250.068C923.419,250.068 912.222,255.666 902.043,255.666C892.881,255.666 884.738,251.595 884.738,227.165C884.738,206.806 889.828,197.136 905.605,197.136C911.713,197.136 921.383,198.663 923.419,199.172L923.419,250.068Z" style="fill:rgb(29,29,27);fill-rule:nonzero;"/>
                        <path d="M975.333,186.957C950.903,186.957 942.759,199.172 942.759,225.638C942.759,253.631 949.885,266.355 975.333,266.355C1000.78,266.355 1007.91,252.613 1007.91,226.147C1007.91,199.681 998.236,186.957 975.333,186.957ZM975.333,256.175C957.519,256.175 954.465,247.014 954.465,225.638C954.465,204.771 959.046,197.645 975.333,197.645C990.092,197.645 996.2,205.789 996.2,226.147C996.2,245.996 993.146,256.175 975.333,256.175Z" style="fill:rgb(29,29,27);fill-rule:nonzero;"/>
                    </g>
                    <g id="México">
                        <path id="M" d="M1073.56,239.38L1049.64,159.473L1020.12,159.473L1020.12,264.828L1037.93,264.828L1037.93,181.359L1040.48,181.359L1064.4,260.247L1082.72,260.247L1106.13,181.359L1108.17,181.359L1108.17,264.828L1125.98,264.828L1125.98,159.473L1096.97,159.473L1073.56,239.38Z" style="fill:rgb(29,29,27);fill-rule:nonzero;"/>
                        <path id="acento-e" serif:id="acento e" d="M1200.29,164.563L1193.67,147.767L1157.03,162.018L1162.63,176.269L1200.29,164.563Z" style="fill:rgb(29,29,27);fill-rule:nonzero;"/>
                        <path id="e" d="M1176.88,186.957C1155.5,186.957 1143.8,199.681 1143.8,227.674C1143.8,254.648 1152.96,266.355 1175.86,266.355C1189.6,266.355 1206.4,262.792 1206.4,262.792L1205.89,249.05C1205.89,249.05 1189.6,250.577 1177.9,250.577C1165.68,250.577 1161.1,244.978 1160.59,234.29L1207.42,234.29L1208.43,222.075C1209.45,198.154 1198.77,186.957 1176.88,186.957ZM1161.1,220.548C1161.1,207.824 1165.68,202.226 1176.37,202.226C1187.57,202.226 1191.64,206.806 1191.64,220.548L1161.1,220.548Z" style="fill:rgb(29,29,27);fill-rule:nonzero;"/>
                        <path id="x" d="M1263.91,188.484L1249.66,214.441L1234.9,188.484L1216.58,188.484L1238.46,226.656L1216.58,264.828L1234.9,264.828L1249.66,239.38L1263.91,264.828L1282.74,264.828L1260.86,226.656L1282.74,188.484L1263.91,188.484Z" style="fill:rgb(29,29,27);fill-rule:nonzero;"/>
                        <rect id="punto-i" serif:id="punto i" x="1295.98" y="157.947" width="17.305" height="18.322" style="fill:rgb(29,29,27);"/>
                        <rect id="i" x="1295.98" y="188.484" width="17.305" height="76.344" style="fill:rgb(29,29,27);"/>
                        <path id="c" d="M1366.72,203.753C1372.83,203.753 1384.53,205.28 1384.53,205.28L1385.04,190.011C1385.04,190.011 1369.77,186.957 1362.14,186.957C1339.24,186.957 1330.08,198.663 1330.08,225.638C1330.08,254.648 1338.73,266.355 1361.63,266.355C1369.77,266.355 1385.04,263.81 1385.04,263.81L1384.53,248.541C1384.53,248.541 1372.32,250.068 1366.72,250.068C1350.43,250.068 1347.89,243.96 1347.89,225.638C1347.89,209.351 1351.45,203.753 1366.72,203.753Z" style="fill:rgb(29,29,27);fill-rule:nonzero;"/>
                        <path id="o" d="M1424.23,186.957C1398.78,186.957 1389.62,202.226 1389.62,226.656C1389.62,251.595 1397.76,266.355 1424.23,266.355C1450.7,266.355 1458.33,251.086 1458.33,226.656C1458.33,202.226 1449.68,186.957 1424.23,186.957ZM1424.23,251.086C1410.49,251.086 1407.94,242.942 1407.94,226.656C1407.94,210.369 1411.51,203.244 1424.23,203.244C1436.44,203.244 1440.52,210.878 1440.52,226.656C1441.03,242.433 1437.97,251.086 1424.23,251.086Z" style="fill:rgb(29,29,27);fill-rule:nonzero;"/>
                    </g>
                    <path id="Simbolo" d="M309.107,107.56C253.631,107.56 208.333,152.857 208.333,208.333C208.333,263.81 253.631,309.107 309.107,309.107C364.583,309.107 409.881,263.81 409.881,208.333C409.372,152.857 364.074,107.56 309.107,107.56ZM296.383,256.175L258.211,218.004L296.383,179.832L308.598,192.047L283.15,217.495L308.598,242.942L296.383,256.175ZM316.741,237.853L304.526,225.638L330.992,199.172L305.544,173.724L317.759,161.509L355.931,199.681L316.741,237.853Z" style="fill:rgb(29,29,27);fill-rule:nonzero;"/>
                </g>
            </g>
        </g>
    </g>
</svg>
